<svg xmlns="http://www.w3.org/2000/svg" xmlns:xlink="http://www.w3.org/1999/xlink" width="500" zoomAndPan="magnify" viewBox="0 0 375 374.999991" height="500" preserveAspectRatio="xMidYMid meet" version="1.0"><defs><clipPath id="0ffdc24f4a"><path d="M 5 9.347656 L 247 9.347656 L 247 245 L 5 245 Z M 5 9.347656 " clip-rule="nonzero"/></clipPath><clipPath id="1ebd9869a4"><path d="M 169 89 L 371 89 L 371 352.097656 L 169 352.097656 Z M 169 89 " clip-rule="nonzero"/></clipPath></defs><path fill="#7ed957" d="M 324.597656 73.015625 C 323.589844 67.402344 323.234375 61.609375 321.253906 56.226562 C 318.09375 48.625 311.53125 43.125 304.835938 38.667969 C 304.359375 38.363281 303.863281 38.082031 303.355469 37.84375 C 302.78125 37.582031 302.429688 37.871094 302.519531 38.5 C 320 106.246094 299.3125 180.269531 254.589844 233.183594 C 225.980469 267.859375 187.75 294.898438 144.859375 308.726562 C 124.503906 315.46875 103.050781 317.996094 81.667969 316.910156 C 77.867188 318.089844 98.425781 329.300781 99.929688 329.382812 C 112.785156 335.089844 126.945312 332.265625 140.207031 329.675781 C 242.953125 307.496094 324.699219 208.773438 326.5625 103.546875 C 326.621094 93.351562 326.085938 83.109375 324.597656 73.015625 Z M 324.597656 73.015625 " fill-opacity="1" fill-rule="nonzero"/><path fill="#7ed957" d="M 94.785156 312.640625 C 137.191406 312.082031 177.851562 293.902344 211.140625 268.417969 C 273.289062 221.214844 312.53125 142.089844 302.984375 63.546875 C 302.148438 55.65625 300.746094 47.820312 298.867188 40.117188 C 297.144531 32.390625 289.394531 28.210938 282.710938 25.207031 C 281.425781 24.464844 281.695312 25.695312 281.914062 26.574219 C 286.753906 47.675781 288.570312 68.699219 287.039062 90.492188 C 281.382812 169.523438 229.476562 242.207031 158.355469 276.210938 C 129.402344 289.996094 96.941406 298.035156 64.796875 294.410156 C 60.71875 293.9375 56.699219 292.953125 52.621094 292.53125 C 52.234375 292.535156 52.003906 292.867188 52.1875 293.214844 C 52.488281 293.800781 52.792969 294.40625 53.203125 294.90625 C 54.167969 296.074219 55.164062 297.214844 56.207031 298.308594 C 67.453125 310.402344 78.644531 313.519531 94.785156 312.640625 Z M 94.785156 312.640625 " fill-opacity="1" fill-rule="nonzero"/><path fill="#7ed957" d="M 176.757812 260.890625 C 243.894531 219.277344 288.335938 141.195312 283.09375 61.523438 C 282.488281 48.667969 280.109375 35.992188 277.511719 23.414062 C 277.425781 22.109375 275.964844 21.96875 275.054688 21.410156 C 271.449219 20.007812 267.945312 18.300781 264.25 17.144531 C 263.730469 17 263.558594 17.160156 263.648438 17.699219 C 264.570312 21.996094 265.375 26.3125 265.941406 30.675781 C 268.496094 48.667969 268.742188 66.925781 266.867188 84.992188 C 257.035156 182.96875 169.835938 272.21875 69.304688 272.226562 C 56.722656 272.285156 44.375 270.046875 32.21875 267.011719 C 31.902344 266.988281 31.667969 267.28125 31.773438 267.570312 C 34.644531 273.515625 39.003906 278.566406 43.960938 282.890625 C 49.96875 288.457031 58.285156 289.164062 66.066406 290.035156 C 104.957031 294.105469 143.933594 281.183594 176.757812 260.890625 Z M 176.757812 260.890625 " fill-opacity="1" fill-rule="nonzero"/><path fill="#c1ff72" d="M 263.71875 45.367188 C 262.914062 35.472656 261.523438 25.648438 259.578125 15.914062 C 259.511719 15.53125 259.324219 15.339844 258.964844 15.238281 C 255.3125 14.097656 251.601562 13.164062 247.890625 12.222656 C 247.527344 12.132812 247.339844 12.28125 247.359375 12.644531 C 247.875 16.910156 248.6875 21.136719 249.148438 25.417969 C 250.96875 42.199219 251.101562 59.316406 248.871094 76.210938 C 237.359375 176.242188 136.757812 266.324219 34.066406 245.25 C 28.199219 243.9375 22.523438 242 16.828125 240.101562 C 16.351562 239.96875 16.039062 240.210938 16.140625 240.675781 C 16.277344 241.316406 16.460938 241.960938 16.71875 242.558594 C 19.476562 248.738281 22.859375 254.867188 28 259.390625 C 32.476562 263.378906 38.6875 264.03125 44.328125 265.273438 C 97.03125 276.148438 150.511719 254.050781 189.800781 219.378906 C 239.222656 176.601562 268.933594 111.007812 263.71875 45.367188 Z M 263.71875 45.367188 " fill-opacity="1" fill-rule="nonzero"/><g clip-path="url(#0ffdc24f4a)"><path fill="#c1ff72" d="M 204.824219 170.136719 C 233.28125 134.121094 248.554688 87.988281 246.675781 42.085938 C 246.3125 31.976562 245.171875 21.910156 243.660156 11.914062 C 243.554688 11.148438 243.542969 11.113281 242.691406 10.964844 C 240.644531 10.601562 238.59375 10.242188 236.542969 9.898438 C 235.375 9.707031 234.207031 9.539062 233.035156 9.378906 C 231.972656 9.128906 232.394531 10.660156 232.40625 11.257812 C 234.734375 26.402344 235.640625 41.769531 234.394531 57.0625 C 228.882812 142.820312 155.027344 218.222656 68.929688 223.496094 C 53.476562 224.515625 37.765625 223.074219 22.976562 218.363281 C 17.128906 216.589844 11.542969 214.148438 5.949219 211.722656 C 5.660156 211.617188 5.359375 211.835938 5.359375 212.152344 C 6.683594 220.023438 9.78125 228.136719 15.449219 233.921875 C 17.449219 235.929688 20.292969 236.636719 22.875 237.601562 C 89.96875 259.15625 163.644531 223.949219 204.824219 170.136719 Z M 204.824219 170.136719 " fill-opacity="1" fill-rule="nonzero"/></g><path fill="#c1ff72" d="M 9.121094 208.269531 C 82.84375 241.675781 171.382812 195.40625 208.566406 128.503906 C 214.652344 117.65625 220.117188 106.25 222.792969 94.03125 C 222.863281 93.664062 222.910156 93.289062 222.933594 92.914062 C 222.996094 92.292969 222.246094 92.066406 221.878906 92.511719 C 221.40625 93.101562 220.957031 93.710938 220.554688 94.347656 C 210.378906 111.230469 198.117188 126.820312 185.078125 141.578125 C 142.429688 190.375 60.953125 216.285156 2.515625 181.542969 C 1.742188 181.242188 0.320312 179.933594 0.175781 181.382812 C 0.160156 182.65625 0.15625 183.941406 0.261719 185.210938 C 1.214844 192.714844 1.792969 204.167969 9.121094 208.269531 Z M 9.121094 208.269531 " fill-opacity="1" fill-rule="nonzero"/><path fill="#47a64e" d="M 183.5625 134.21875 C 149.277344 157.539062 112.476562 173.039062 70.238281 169.863281 C 46.148438 168.171875 21.648438 161.480469 3.148438 145.335938 C 1.398438 143.617188 0.546875 158.320312 0.285156 159.535156 C -0.128906 166.207031 -0.5625 174.410156 5.9375 178.425781 C 26.003906 191.53125 50.292969 194.308594 73.816406 192.519531 C 105.824219 190.210938 136.851562 177.847656 161.910156 157.832031 C 164.394531 156.484375 188.414062 134.417969 183.5625 134.21875 Z M 183.5625 134.21875 " fill-opacity="1" fill-rule="nonzero"/><path fill="#47a64e" d="M 10.628906 145.5 C 26.285156 160.140625 49.042969 164.042969 69.722656 165.527344 C 95.683594 167.074219 126.703125 162.84375 149.085938 148.761719 C 138.347656 148.917969 127.550781 150.546875 116.742188 149.832031 C 79.882812 148.328125 43.679688 132.996094 17.519531 106.886719 C 17.007812 106.402344 16.492188 105.910156 15.957031 105.449219 C 15.292969 104.878906 15.203125 104.886719 14.800781 105.609375 C 12.085938 110.648438 10.207031 116.078125 8.316406 121.464844 C 5.511719 130.015625 3.230469 138.546875 10.628906 145.5 Z M 10.628906 145.5 " fill-opacity="1" fill-rule="nonzero"/><path fill="#00bf63" d="M 347.277344 89.417969 C 345.613281 77.222656 337.050781 67.265625 328.429688 59.050781 C 328.09375 58.734375 327.667969 58.492188 327.253906 58.285156 C 326.765625 58.039062 326.519531 58.210938 326.554688 58.722656 C 328.195312 68.539062 330 78.386719 330.46875 88.34375 C 334.261719 143.761719 315.15625 199.34375 281.253906 242.96875 C 243.199219 292.433594 186.519531 329.867188 123.734375 336.828125 C 122.9375 336.921875 122.140625 337.039062 121.351562 337.195312 C 120.085938 337.546875 121.507812 338.714844 122.128906 339 C 135.742188 346.078125 151.847656 349.695312 166.953125 345.757812 C 181.996094 341.691406 196.886719 336.847656 210.898438 329.96875 C 298.433594 286.652344 360.9375 188.390625 347.277344 89.417969 Z M 347.277344 89.417969 " fill-opacity="1" fill-rule="nonzero"/><g clip-path="url(#1ebd9869a4)"><path fill="#00bf63" d="M 366.171875 181.324219 C 368.054688 171.875 369.667969 162.347656 370.464844 152.742188 C 371.679688 130.683594 364.472656 108.515625 352.519531 90.140625 C 351.113281 88.917969 352.390625 95.402344 352.359375 95.910156 C 353.585938 109.375 353.957031 122.941406 352.863281 136.425781 C 345.09375 228.1875 278.183594 311.03125 192.472656 342.816406 C 185.265625 345.402344 177.878906 347.421875 170.519531 349.527344 C 169.820312 349.734375 169.699219 350.007812 169.929688 350.667969 C 169.535156 352.246094 175.914062 351.886719 176.683594 352.078125 C 188.007812 352.386719 200.226562 352.21875 211.585938 350.007812 C 234.726562 346.316406 255.511719 334.777344 273.941406 320.710938 C 319.066406 286.542969 354.679688 237.308594 366.171875 181.324219 Z M 366.171875 181.324219 " fill-opacity="1" fill-rule="nonzero"/></g><path fill="#00bf63" d="M 374.769531 162.132812 C 374.75 161.511719 374.988281 160.800781 374.378906 160.285156 C 367.636719 235.609375 318.476562 302.207031 254.113281 339.707031 C 323.550781 314.179688 375.695312 244.039062 374.902344 169.222656 C 374.867188 166.855469 374.851562 164.496094 374.769531 162.132812 Z M 374.769531 162.132812 " fill-opacity="1" fill-rule="nonzero"/></svg>